<?xml version="1.0" encoding="UTF-8"?>
<svg viewBox="0 0 190.69 132.27" xmlns="http://www.w3.org/2000/svg" xmlns:xlink="http://www.w3.org/1999/xlink">
 <defs>
  <linearGradient id="o" x1=".36937" x2=".40432" y1="-.11718" y2=".46875">
   <stop stop-color="#ddd" offset="0"/>
   <stop stop-color="#fff" offset="1"/>
  </linearGradient>
  <linearGradient id="m" x1=".45832" y1=".53672" y2=".53672" spreadMethod="reflect" xlink:href="#b"/>
  <linearGradient id="p" x1=".39097" x2=".21355" y1=".048094" y2=".69178" xlink:href="#a"/>
  <linearGradient id="r" x1=".47925" x2=".40112" y1=".23316" y2=".61169" spreadMethod="reflect" xlink:href="#b"/>
  <linearGradient id="q" x1=".15199" x2=".7175" y1="1.1087" y2="-.64581">
   <stop stop-color="#000409" offset="0"/>
   <stop stop-color="#000409" offset="1"/>
  </linearGradient>
  <linearGradient id="n" x1=".39966" x2=".53304" y1=".35986" y2=".79132" spreadMethod="reflect" xlink:href="#b"/>
  <linearGradient id="b">
   <stop stop-color="#fff" offset="0"/>
   <stop stop-color="#fff" offset="1"/>
  </linearGradient>
  <linearGradient id="a">
   <stop stop-color="#000409" offset="0"/>
   <stop stop-color="#000409" offset="1"/>
  </linearGradient>
  <linearGradient id="l" x1=".58037" x2=".79018" y1=".10137" y2=".44447" xlink:href="#a"/>
  <radialGradient id="s" cx="56.758" cy="178.72" r="54.056" gradientTransform="matrix(.97591 -.010641 -.016026 .17286 -205.68 97.615)" gradientUnits="userSpaceOnUse" xlink:href="#a"/>
  <radialGradient id="t" cx="56.758" cy="178.72" r="54.056" gradientTransform="matrix(1.6378 0 0 .50599 -268.43 16.24)" gradientUnits="userSpaceOnUse" xlink:href="#a"/>
 </defs>
 <g stroke-width="1.25">
  <path d="m105.36-72.832z" fill="none" stroke="#000"/>
  <g stroke-linecap="round" stroke-linejoin="round" stroke-opacity=".594">
   <path d="m177.07 101.67c0 15.106-39.638 27.352-88.533 27.352-48.896 0-88.533-12.246-88.533-27.352s39.638-27.352 88.533-27.352c48.896 0 88.533 12.246 88.533 27.352z" fill="url(#t)"/>
   <path d="m163.6 122.33c-0.47844 5.1607-24.485 9.6018-53.62 9.9194-29.135 0.31767-52.366-3.6084-51.887-8.769 0.47843-5.1607 24.485-9.6018 53.62-9.9194 29.135-0.31768 52.366 3.6084 51.887 8.769z" fill="url(#s)" opacity=".275"/>
  </g>
 </g>
 <g fill-rule="evenodd">
  <path d="m11.612 31.851l6.5717 64.803c0.084824 1.4421 0.67862 4.1565 2.5448 4.8352l83.8 30.658c2.8841 1.4421 7.7593 0.84827 10.134-0.25449l56.719-31.93c2.5448-1.1028 4.3262-2.969 4.5807-5.5986l7.3351-61.076c0.42413-3.8023 3.9021-2.2605 4.3262-5.5538l0.8907-8.0162c0.16965-1.0603-0.9331-2.2479-2.4176-2.6721l-107.96-14.461c-2.1631-0.5938-5.0448-0.55138-7.0807-8e-6l-61.614 13.577c-1.6117 0.50897-2.7145 2.0359-2.5448 3.0538v7.6345c0.38414 2.6995 3.5676 1.0281 4.7151 5z" fill="#7f3f00" stroke="#00287b" stroke-width=".312"/>
  <path d="m20.153 14.737l93.59 20.005 67.319-18.163-104.01-14.396-56.9 12.554z" fill="url(#q)" opacity=".597" stroke="url(#r)" stroke-linejoin="round" stroke-opacity=".594" stroke-width="1.25"/>
  <g stroke-width=".312">
   <path d="m13.563 27.797l95.284 23.418 1.2543 76.086-90.991-52.061-5.5474-47.444z" fill="url(#p)" opacity=".351"/>
   <path d="m54.213 51.97c-0.30348 0.046719-0.60114 0.17931-0.87916 0.4375l-3.1207 6.125 7.1106 8.0937 3.0978-6.5312c-1.4306-3.9752-4.0842-8.4521-6.2085-8.125zm1.9312 0.1875c1.8882 1.4677 3.1566 3.7914 4.2898 6.625l3.0523 7.6562-1.8708 0.9688 7.1647 2.875 3.2498-7.0312-2.1542 0.7188-1.7918-4.5312c-0.57526-1.6833-2.0676-3.5756-3.3147-4l-8.6251-3.2812zm-10.785 9.3438l2.248 3.0312-1.6666 4.375c-0.83662 1.9778 1.0054 4.9323 2.1335 6.1562 1.1106 1.205 2.7694 1.9567 4.3063 2.5312l2.3874-5.0625 2.1876 2.3438-4.2211-10.562-7.3751-2.8125zm28 10.781l-6.327 2.9375 3.7669 9.5c3.2079 1.5127 7.0712 1.4556 6.0708-3.2188l-3.5107-9.2188zm-26.931 1.2188l5.1753 13.031c1.0009 1.9202 2.7497 2.9592 4.5105 3.5938l4.7188 1.875-0.644-10.688-9.0147-3.625c-1.3879-0.43287-3.2188-1.5332-4.7459-4.1875zm19.417 6.875l-2.9707 7.25 4.069 10.125-0.1188-3.4688 3.2021 1.2812c1.1839 0.60151 2.6501 0.11015 3.1187-1.2188l3.4727-8.875c-1.2462 1.3384-2.9671 1.1348-4.9854 0.34375l-5.4396-2.125-0.348-3.3125z" fill="url(#o)"/>
   <path d="m117.81 54.167l66.097-21.953-4.3804 35.105c-5.7333 37.183-56.51 6.673-64.279 58.87l2.5629-72.022z" fill="url(#n)" opacity=".261"/>
  </g>
 </g>
 <rect transform="matrix(1 .0020882 -.007633 .99997 0 0)" x="110.94" y="53.032" width="5.5047" height="74.679" rx="2.5192" ry="1.4394" fill="url(#m)" opacity=".346" stroke-linecap="round" stroke-linejoin="round" stroke-opacity=".594" stroke-width="1.25"/>
 <g fill-rule="evenodd" stroke-width=".312">
  <path d="m185.7 29.334l-66.918 22.037c-3.3083 1.0179-7.249 1.1015-10.001-0.14907l0.2594 22.328c1.6541-0.25448 3.6208-0.08358 6.4999-0.80336 2.8791-0.71979 66.58-23.033 66.58-23.033l3.5797-20.379z" fill="url(#l)" opacity=".408"/>
  <path d="m12.953 15.554l7.1255-1.3778 94.009 21.184 67.947-19.192 5.8531 0.4036-73.8 22.351-101.13-23.369z" fill="#fff" opacity=".204"/>
 </g>
 <rect transform="matrix(.97133 .23774 0 1 0 0)" x="10.374" y="13.192" width="105.97" height="10.437" rx="2.3868" ry="2.0711" fill="#000409" fill-opacity=".467" opacity=".3" stroke-linecap="round" stroke-linejoin="round" stroke-opacity=".594" stroke-width="1.25"/>
</svg>
